# xmcd
#
# Track frame offsets:
#	150
#	15929
#	26967
#	42386
#	60126
#	74658
#	91968
#	117472
#	132660
#	145727
#	161741
#	173508
#	186590
#	198112
#	210327
#	239946
#
# Disc length: 3678 seconds
#
# Revision: 0
# Processed by: cddbd v1.5.1PL2 Copyright (c) Steve Scherf et al.
# Submitted via: dBpowerAMP V4.0
#
DISCID=e90e5c10
DTITLE=bluesNETTwork - Hotter Than Hell/Cooler Than a Frigidaire
DYEAR=2005
DGENRE=Blues
TTITLE0=Good Morning Little Schoolgirl
TTITLE1=Handle With Care
TTITLE2=Oldfashioned Country Man
TTITLE3=Sailed to Dixieland
TTITLE4=Will You Ever Start to Love Me
TTITLE5=Kickin' and Stompin'
TTITLE6=They Call Me Reverend J.C.
TTITLE7=Write Me a Few of Your Lines
TTITLE8=Folsom Prison Blues
TTITLE9=Little by Little
TTITLE10=I've Got a Habit
TTITLE11=Cocaine Transfusion Blues
TTITLE12=Rainin' in my Heart
TTITLE13=You'll Be Mine
TTITLE14=Walkin' Blues
TTITLE15=DATA
EXTD=Suisa/CD Baby
EXTT0=
EXTT1=
EXTT2=
EXTT3=
EXTT4=
EXTT5=
EXTT6=
EXTT7=
EXTT8=
EXTT9=
EXTT10=
EXTT11=
EXTT12=
EXTT13=
EXTT14=
EXTT15=
PLAYORDER=
